<?xml version="1.0" standalone="no"?>
<!DOCTYPE svg PUBLIC "-//W3C//DTD SVG 20010904//EN"
        "http://www.w3.org/TR/2001/REC-SVG-20010904/DTD/svg10.dtd">
<svg version="1.0" xmlns="http://www.w3.org/2000/svg"
     width="1024.000000pt" height="1024.000000pt" viewBox="0 0 1024.000000 1024.000000"
     preserveAspectRatio="xMidYMid meet">

    <g transform="translate(0.000000,1024.000000) scale(0.100000,-0.100000)"
       fill="#ffffff" stroke="none">
        <path d="M2325 8012 c-153 -53 -257 -172 -286 -327 -6 -32 -9 -224 -7 -479 l3
-424 30 -44 c38 -53 86 -86 137 -94 l38 -7 0 -1931 c0 -2107 -3 -1981 56
-2098 34 -67 125 -158 192 -192 118 -60 -59 -56 2632 -56 2691 0 2514 -4 2632
56 123 62 227 213 248 359 6 45 10 755 10 1965 l0 1896 47 13 c63 16 106 51
132 104 20 42 21 57 21 473 0 457 -3 492 -50 585 -45 87 -138 166 -237 200
-55 19 -110 19 -2802 19 -2579 -1 -2749 -2 -2796 -18z m5482 -374 l23 -21 0
-304 0 -303 -2715 0 -2715 0 0 290 c0 237 3 296 15 320 8 15 20 30 27 33 7 3
1212 6 2677 6 l2665 1 23 -22z m-167 -2903 c0 -2125 5 -1961 -65 -1991 -29
-12 -386 -14 -2462 -14 -2409 0 -2428 0 -2461 20 -18 11 -37 32 -42 46 -6 16
-10 718 -10 1935 l0 1909 2048 2 c1126 2 2260 4 2520 6 l472 2 0 -1915z"/>
        <path d="M4075 6279 c-216 -31 -357 -134 -415 -306 -22 -64 -23 -89 -31 -443
-8 -406 -13 -448 -66 -510 -42 -50 -92 -70 -183 -73 l-80 -2 0 -191 0 -191 31
-7 c17 -3 52 -6 78 -6 84 -1 153 -46 188 -125 15 -35 18 -87 24 -405 7 -395
12 -437 67 -548 53 -109 170 -199 307 -237 40 -11 121 -18 243 -22 l182 -6 0
191 0 190 -112 4 c-62 2 -122 8 -132 13 -15 6 -17 5 -11 -5 5 -9 4 -11 -4 -6
-6 4 -9 11 -6 16 3 4 -3 14 -12 21 -9 8 -26 34 -37 59 -19 42 -21 70 -27 375
-4 221 -10 343 -19 370 -23 75 -62 139 -119 195 -53 52 -150 110 -185 110 -29
0 -16 17 22 28 50 15 135 70 127 82 -3 5 0 7 9 4 9 -4 28 13 54 48 96 128 103
164 112 548 8 342 12 370 65 425 36 38 99 55 208 55 l72 0 -3 180 -3 180 -142
-1 c-78 -1 -169 -5 -202 -10z m303 -6 c-21 -2 -57 -2 -80 0 -24 2 -7 4 37 4
44 0 63 -2 43 -4z m-271 -9 c-3 -3 -12 -4 -19 -1 -8 3 -5 6 6 6 11 1 17 -2 13
-5z m40 0 c-3 -3 -12 -4 -19 -1 -8 3 -5 6 6 6 11 1 17 -2 13 -5z m260 -41 c-3
-10 -5 -4 -5 12 0 17 2 24 5 18 2 -7 2 -21 0 -30z m0 -105 c-2 -13 -4 -5 -4
17 -1 22 1 32 4 23 2 -10 2 -28 0 -40z m-24 -175 c-18 -2 -48 -2 -65 0 -18 2
-4 4 32 4 36 0 50 -2 33 -4z m-736 -215 c-2 -13 -4 -5 -4 17 -1 22 1 32 4 23
2 -10 2 -28 0 -40z m0 -430 c-3 -8 -6 -5 -6 6 -1 11 2 17 5 13 3 -3 4 -12 1
-19z m-10 -140 c-3 -8 -6 -5 -6 6 -1 11 2 17 5 13 3 -3 4 -12 1 -19z m410 -60
c-3 -8 -6 -5 -6 6 -1 11 2 17 5 13 3 -3 4 -12 1 -19z m-714 -520 c8 -5 7 -8
-5 -8 -17 0 -18 13 -16 158 l2 157 3 -150 c3 -104 7 -152 16 -157z m724 -210
c-3 -8 -6 -5 -6 6 -1 11 2 17 5 13 3 -3 4 -12 1 -19z m350 -880 c-3 -8 -6 -5
-6 6 -1 11 2 17 5 13 3 -3 4 -12 1 -19z m0 -80 c-3 -8 -6 -5 -6 6 -1 11 2 17
5 13 3 -3 4 -12 1 -19z m-294 -175 c-7 -2 -19 -2 -25 0 -7 3 -2 5 12 5 14 0
19 -2 13 -5z m297 -3 c0 -6 -33 -9 -82 -8 l-83 2 80 6 c44 3 81 7 83 8 1 1 2
-2 2 -8z m-173 -6 c-3 -3 -12 -4 -19 -1 -8 3 -5 6 6 6 11 1 17 -2 13 -5z"/>
        <path d="M5815 6113 l0 -180 104 -7 c132 -8 175 -28 211 -101 25 -49 25 -55
31 -370 7 -346 13 -389 67 -488 49 -90 142 -168 240 -203 32 -11 34 -13 17
-19 -71 -26 -131 -60 -176 -102 -63 -59 -91 -102 -121 -185 -20 -59 -22 -85
-27 -393 -6 -307 -8 -333 -27 -375 -11 -25 -28 -51 -37 -59 -9 -7 -15 -16 -13
-20 6 -9 -10 -11 -146 -17 l-117 -6 -3 -190 -3 -191 185 6 c199 5 264 17 360
65 72 36 160 123 194 193 55 115 58 136 65 539 6 328 9 380 24 415 41 91 101
124 225 125 l82 0 0 195 0 195 -58 0 c-122 0 -196 40 -239 128 l-28 57 -6 370
c-4 225 -12 388 -19 415 -20 80 -80 191 -129 239 -98 98 -210 130 -471 138
l-185 6 0 -180z m133 160 c-21 -2 -57 -2 -80 0 -24 2 -7 4 37 4 44 0 63 -2 43
-4z m85 0 c-7 -2 -21 -2 -30 0 -10 3 -4 5 12 5 17 0 24 -2 18 -5z m130 -10
c-7 -2 -21 -2 -30 0 -10 3 -4 5 12 5 17 0 24 -2 18 -5z m104 -19 c-3 -3 -12
-4 -19 -1 -8 3 -5 6 6 6 11 1 17 -2 13 -5z m-359 -301 c-10 -2 -28 -2 -40 0
-13 2 -5 4 17 4 22 1 32 -1 23 -4z m689 -135 c-3 -7 -5 -2 -5 12 0 14 2 19 5
13 2 -7 2 -19 0 -25z m-430 -40 c-3 -8 -6 -5 -6 6 -1 11 2 17 5 13 3 -3 4 -12
1 -19z m20 -600 c-3 -7 -5 -2 -5 12 0 14 2 19 5 13 2 -7 2 -19 0 -25z m420 0
c-3 -8 -6 -5 -6 6 -1 11 2 17 5 13 3 -3 4 -12 1 -19z m0 -850 c-3 -7 -5 -2 -5
12 0 14 2 19 5 13 2 -7 2 -19 0 -25z m-430 -550 c-3 -8 -6 -5 -6 6 -1 11 2 17
5 13 3 -3 4 -12 1 -19z m-340 -230 c-3 -7 -5 -2 -5 12 0 14 2 19 5 13 2 -7 2
-19 0 -25z m0 -275 c-2 -16 -4 -5 -4 22 0 28 2 40 4 28 2 -13 2 -35 0 -50z
m326 -30 c-7 -2 -21 -2 -30 0 -10 3 -4 5 12 5 17 0 24 -2 18 -5z m-180 -10
c-29 -2 -77 -2 -105 0 -29 2 -6 3 52 3 58 0 81 -1 53 -3z"/>
    </g>
</svg>